<svg width="120" height="120" viewBox="0 0 120 120" shape-rendering="geometricPrecision" version="1.1" xmlns="http://www.w3.org/2000/svg"><desc>Created by https://guilds.gw2w2w.com/</desc><rect x="0" y="0" width="120" height="120" fill="none" stroke="none" /><g transform="matrix(0.46875,0,0,0.46875,0,0)">
<g fill="rgb(124,136,138)" stroke="rgb(124,136,138)" stroke-width=".05%" stroke-opacity="50%" opacity="0.7"><path d=" M 108.06 30.10 C 110.36 23.80 116.27 20.04 120.75 15.39 C 121.85 22.03 121.58 28.79 120.33 35.38 C 125.69 35.27 131.05 35.28 136.40 35.38 C 135.13 28.81 135.02 22.06 135.97 15.43 C 140.64 19.91 146.21 23.87 148.85 29.99 C 168.14 34.14 186.53 43.48 200.14 57.93 C 212.32 69.78 220.94 85.07 225.47 101.41 C 227.28 108.96 234.76 112.84 239.35 118.56 C 232.73 119.88 225.96 119.41 219.36 118.24 C 219.73 124.45 219.73 130.68 219.23 136.88 C 226.02 136.33 232.84 136.06 239.62 136.82 C 235.13 142.65 227.34 146.44 226.12 154.30 C 218.26 186.61 192.89 213.87 161.41 224.38 C 157.17 225.93 152.53 226.33 148.52 228.43 C 144.06 231.83 140.63 236.38 136.46 240.12 C 135.01 233.64 135.39 226.98 136.66 220.51 C 131.20 220.58 125.75 220.52 120.30 220.38 C 121.54 226.97 121.96 233.73 120.58 240.33 C 117.82 237.80 115.10 235.21 112.54 232.47 C 110.37 230.26 108.22 227.67 105.02 227.02 C 97.96 225.10 90.79 223.25 84.28 219.79 C 75.78 215.33 67.24 210.49 60.47 203.56 C 55.47 198.50 50.15 193.66 46.23 187.68 C 40.13 178.57 34.67 168.81 32.05 158.08 C 30.95 154.66 30.79 150.64 28.09 147.98 C 24.57 144.39 20.85 141.00 17.46 137.27 C 24.12 136.00 30.92 136.41 37.57 137.54 C 37.19 131.12 37.15 124.69 37.62 118.27 C 30.98 119.42 24.18 119.89 17.54 118.51 C 21.44 114.06 26.18 110.38 29.88 105.76 C 32.57 100.08 33.37 93.67 36.10 87.98 C 39.33 81.11 43.31 74.62 47.51 68.31 C 51.85 62.45 57.32 57.57 62.46 52.44 C 67.21 47.61 73.24 44.43 78.97 40.95 C 87.92 35.64 97.86 32.11 108.06 30.10 M 148.07 33.19 C 148.24 35.59 148.41 38.00 148.60 40.40 C 150.99 41.52 153.39 42.62 155.80 43.71 C 158.63 41.89 161.42 40.02 164.15 38.05 C 158.91 36.05 153.52 34.49 148.07 33.19 M 93.11 37.99 C 96.52 40.40 100.57 44.44 105.07 42.05 C 109.05 41.04 108.38 36.34 108.85 33.17 C 103.51 34.45 98.23 36.00 93.11 37.99 M 90.84 38.85 C 90.01 42.33 90.89 45.90 91.37 49.36 C 93.75 47.94 96.12 46.50 98.49 45.06 C 96.49 42.64 94.57 40.10 92.04 38.22 L 90.84 38.85 M 158.85 45.25 C 161.32 46.86 163.80 48.44 166.29 50.01 C 166.73 46.62 167.22 43.24 167.70 39.86 C 167.00 39.46 165.60 38.65 164.90 38.25 C 162.87 40.57 160.86 42.91 158.85 45.25 M 68.39 52.14 C 69.70 55.80 71.07 59.43 72.52 63.04 C 74.97 61.10 77.41 59.14 79.84 57.18 C 76.83 55.08 73.83 52.96 70.88 50.77 C 75.62 52.05 80.43 54.24 85.45 53.51 C 88.31 49.52 88.70 44.42 89.75 39.77 C 81.80 42.28 74.97 47.17 68.39 52.14 M 167.86 39.84 C 168.08 44.71 169.34 49.45 171.33 53.89 C 176.51 53.75 181.56 52.41 186.25 50.21 C 180.48 46.16 174.55 42.21 167.86 39.84 M 116.82 48.85 C 113.39 52.73 112.06 57.99 109.24 62.29 C 97.73 81.18 81.47 97.19 62.32 108.27 C 58.71 110.43 54.63 111.77 51.26 114.30 C 50.21 115.97 50.16 118.05 49.88 119.95 C 49.33 127.11 49.58 134.32 50.69 141.42 C 78.64 154.29 102.22 176.92 115.20 204.92 C 116.18 207.76 119.49 207.77 121.98 208.00 C 128.36 208.12 134.82 207.83 141.09 206.55 C 147.49 191.32 157.48 177.77 169.42 166.43 C 180.00 155.84 192.66 147.51 206.29 141.38 C 207.91 132.29 207.24 122.93 205.72 113.88 C 184.18 104.65 165.91 88.65 152.32 69.70 C 147.53 63.16 144.04 55.83 140.38 48.64 C 132.63 47.60 124.42 46.57 116.82 48.85 M 178.07 57.32 C 179.76 60.05 182.70 61.57 185.29 63.31 C 186.43 60.06 187.53 56.79 188.55 53.50 C 188.51 58.28 188.63 63.06 189.17 67.81 C 194.17 68.52 199.24 68.64 204.28 68.21 C 199.88 61.27 193.50 55.93 187.00 51.03 C 183.95 53.02 180.75 54.84 178.07 57.32 M 55.44 101.23 C 65.97 96.60 75.15 89.37 83.42 81.46 C 91.47 73.11 98.66 63.74 103.45 53.12 C 82.79 63.28 65.31 80.37 55.44 101.23 M 153.13 53.02 C 157.65 62.31 163.41 71.02 170.57 78.49 C 179.35 87.83 189.54 96.11 201.39 101.21 C 191.25 80.38 173.93 63.19 153.13 53.02 M 52.78 68.33 C 57.67 68.65 62.60 68.49 67.43 67.60 C 67.59 62.73 67.62 57.84 67.26 52.97 C 61.85 57.47 56.29 62.11 52.78 68.33 M 50.96 68.11 C 51.56 72.67 54.71 76.15 57.28 79.75 C 59.21 77.29 61.15 74.83 63.09 72.38 C 59.24 70.45 55.17 68.99 50.96 68.11 M 194.01 72.74 C 196.00 75.29 197.98 77.85 199.99 80.38 C 202.06 77.46 204.12 74.53 206.17 71.59 C 204.55 76.38 203.28 81.32 203.16 86.41 C 207.20 88.06 211.40 89.31 215.69 90.19 C 212.70 90.59 209.73 91.05 206.75 91.52 C 208.27 94.24 209.77 96.97 211.30 99.69 C 213.37 97.84 215.35 95.88 217.02 93.65 C 217.47 94.12 217.91 94.59 218.35 95.08 C 215.20 97.73 213.22 101.44 213.04 105.58 C 216.42 106.25 219.83 106.69 223.26 106.94 C 222.33 102.33 220.73 97.86 220.25 93.16 C 219.84 93.08 219.03 92.93 218.62 92.85 C 216.04 83.93 210.88 76.03 205.14 68.82 C 201.38 69.98 197.67 71.28 194.01 72.74 M 39.72 89.88 C 44.52 89.04 49.21 87.66 53.64 85.65 C 52.57 81.04 51.76 76.31 49.79 71.97 C 45.07 77.00 41.71 83.29 39.72 89.88 M 37.62 90.48 C 39.34 94.19 42.44 96.85 45.70 99.17 C 47.23 96.40 48.71 93.61 50.13 90.78 C 45.96 90.50 41.79 90.34 37.62 90.48 M 36.78 95.29 C 35.66 99.14 34.51 102.99 33.34 106.82 C 36.68 106.64 40.01 106.32 43.32 105.84 C 42.72 101.93 40.90 98.41 38.63 95.21 C 38.17 95.23 37.24 95.27 36.78 95.29 M 33.05 148.73 C 34.07 154.03 35.52 159.24 37.70 164.19 C 40.47 159.94 45.77 154.96 42.48 149.57 C 39.33 149.34 36.19 149.03 33.05 148.73 M 212.77 153.05 C 212.37 157.03 215.80 160.13 217.56 163.42 C 215.22 161.52 212.88 159.61 210.55 157.71 C 209.13 160.50 207.82 163.35 206.64 166.25 C 210.53 166.52 214.43 166.71 218.33 166.79 C 220.80 160.83 222.98 154.71 223.97 148.31 C 220.19 149.12 213.90 148.07 212.77 153.05 M 153.26 202.40 C 174.25 192.44 191.80 175.06 201.68 154.01 C 180.77 164.21 163.63 181.62 153.26 202.40 M 55.44 154.28 C 65.10 175.35 82.73 192.41 103.40 202.67 C 93.67 181.63 76.10 164.58 55.44 154.28 M 46.40 157.92 C 43.73 160.20 41.07 162.47 38.39 164.74 C 38.47 165.64 38.55 166.53 38.64 167.43 C 42.52 167.01 46.41 166.61 50.31 166.30 C 49.11 163.46 47.80 160.67 46.40 157.92 M 203.06 171.63 C 203.65 176.76 204.89 181.79 206.88 186.55 C 211.76 180.84 215.30 174.13 218.04 167.17 C 212.93 168.23 207.92 169.72 203.06 171.63 M 39.68 168.40 C 41.85 175.20 45.76 181.25 50.10 186.86 C 51.76 182.15 52.97 177.31 53.77 172.39 C 49.24 170.54 44.51 169.18 39.68 168.40 M 199.54 178.17 C 197.53 180.18 195.92 182.56 194.23 184.84 C 198.33 186.57 202.57 188.00 206.96 188.83 C 204.97 185.04 203.33 180.52 199.54 178.17 M 50.35 188.52 C 54.82 188.82 58.87 186.49 62.98 185.11 C 61.06 182.66 59.12 180.22 57.15 177.81 C 54.70 181.25 52.02 184.60 50.35 188.52 M 189.45 189.39 C 188.72 194.41 188.52 199.50 189.04 204.56 C 195.71 200.91 200.85 194.98 205.03 188.74 C 199.83 188.50 194.61 188.64 189.45 189.39 M 52.68 190.47 C 57.19 195.84 62.17 200.82 67.57 205.30 C 68.65 200.31 68.44 195.19 67.52 190.20 C 62.60 189.34 57.57 189.40 52.68 190.47 M 72.39 194.76 C 70.64 198.75 68.66 202.86 69.06 207.35 C 72.80 205.24 76.28 202.72 79.60 200.00 C 77.22 198.23 74.81 196.49 72.39 194.76 M 177.27 200.08 C 180.89 202.81 184.62 205.43 188.83 207.17 C 188.28 202.67 186.63 198.44 184.75 194.35 C 182.26 196.26 179.77 198.17 177.27 200.08 M 71.84 207.77 C 76.63 212.84 83.32 215.68 89.68 218.26 C 88.87 213.40 87.47 208.68 85.62 204.13 C 80.89 204.66 76.10 205.51 71.84 207.77 M 168.19 218.27 C 174.60 214.94 181.36 211.96 186.66 206.93 C 181.79 205.18 176.78 203.88 171.66 203.15 C 169.59 207.93 167.95 212.99 168.19 218.27 M 91.50 206.95 C 90.64 211.38 89.97 215.98 91.41 220.37 C 94.37 217.55 96.97 214.40 99.44 211.15 C 96.79 209.76 94.14 208.35 91.50 206.95 M 157.82 210.82 C 160.00 213.51 162.23 216.18 164.50 218.81 C 165.57 218.66 166.65 218.52 167.72 218.38 C 167.22 214.49 166.71 210.60 166.28 206.71 C 163.43 208.02 160.61 209.38 157.82 210.82 M 92.73 219.64 C 97.87 222.01 103.36 223.44 108.84 224.75 C 108.53 220.83 109.57 214.69 104.44 213.55 C 99.85 213.37 96.36 217.34 92.73 219.64 M 148.55 215.52 C 148.45 218.60 148.30 221.68 148.18 224.76 C 153.70 223.28 159.33 222.01 164.44 219.38 C 161.33 217.27 158.37 214.73 154.77 213.50 C 152.46 212.77 150.49 214.59 148.55 215.52 Z" /></g>
</g><g transform="matrix(0.46875,0,0,0.46875,0,0)">
<g fill="rgb(157,142,108)" stroke="rgb(157,142,108)" stroke-width=".05%" stroke-opacity="50%"><path d=" M 105.57 36.02 C 110.99 36.05 116.42 35.84 121.84 36.12 C 138.30 38.56 154.09 44.92 168.01 53.98 C 180.81 62.33 191.67 73.88 198.30 87.71 C 204.30 100.26 206.92 114.15 207.98 127.93 C 208.79 146.18 204.72 165.03 194.15 180.16 C 180.46 199.94 159.33 214.74 135.73 219.84 C 127.63 221.89 119.21 220.70 110.96 220.99 C 92.53 218.93 75.24 211.18 59.65 201.42 C 56.20 199.10 52.07 197.37 49.60 193.91 C 56.39 194.82 63.19 196.05 70.07 196.03 C 82.47 195.43 94.90 192.72 105.97 186.95 C 127.86 176.24 146.61 157.19 153.40 133.39 C 157.68 118.60 155.53 102.61 149.32 88.69 C 139.80 67.51 122.80 51.05 105.57 36.02 M 122.95 41.00 C 125.66 42.53 129.17 43.27 130.88 46.10 C 132.91 48.91 131.78 52.55 132.09 55.74 C 134.47 51.98 134.87 47.13 132.93 43.09 C 129.65 42.19 126.31 41.53 122.95 41.00 M 140.70 48.65 C 135.46 51.77 142.55 61.20 146.83 56.64 C 148.08 53.59 145.27 51.69 142.83 50.71 C 143.15 51.85 143.50 52.98 143.87 54.11 C 143.22 54.07 141.93 53.98 141.28 53.94 C 140.90 53.45 140.14 52.46 139.76 51.97 C 140.62 50.96 141.47 49.96 142.31 48.94 C 145.75 48.68 151.54 49.31 151.11 54.00 C 151.90 57.63 148.88 60.57 145.84 61.89 C 143.18 62.22 140.50 61.96 137.83 61.86 C 139.74 64.24 141.54 66.71 143.37 69.16 C 150.53 66.60 156.31 56.65 151.05 49.92 C 147.96 48.12 143.87 45.57 140.70 48.65 M 156.55 53.41 C 155.80 57.63 155.72 62.02 154.02 66.02 C 152.78 69.59 149.70 71.97 146.95 74.35 C 149.70 79.26 152.66 84.09 154.57 89.40 C 155.62 92.09 156.36 94.93 157.83 97.44 C 157.51 91.24 155.87 85.19 155.65 78.98 C 154.47 70.13 157.29 61.43 158.24 52.71 C 157.82 52.88 156.97 53.24 156.55 53.41 M 164.15 57.07 C 158.29 63.94 156.08 74.16 159.42 82.62 C 164.84 93.00 176.57 97.44 187.30 100.08 C 184.23 102.86 181.43 106.60 181.83 110.99 C 181.71 113.95 183.98 116.17 185.93 118.08 C 177.15 116.49 168.13 119.10 160.62 123.66 C 159.36 124.81 159.41 126.78 158.82 128.30 C 165.78 124.76 172.96 121.10 180.97 120.99 C 182.81 121.23 185.60 120.36 186.41 122.61 C 179.04 122.92 172.11 126.05 165.99 130.00 C 162.60 132.13 159.11 134.53 156.98 138.00 C 154.74 143.95 152.28 149.88 148.71 155.18 C 159.10 161.87 165.09 173.49 167.08 185.42 C 164.55 183.62 162.15 181.28 158.93 180.87 C 156.04 180.07 153.42 181.76 150.98 183.04 C 152.01 174.14 150.22 165.33 147.76 156.82 C 146.54 158.47 145.35 160.14 144.12 161.79 C 150.49 171.20 148.80 184.20 141.71 192.70 C 137.13 196.42 128.82 197.21 125.27 191.70 C 122.85 188.31 123.89 183.55 126.83 180.84 C 129.88 177.85 135.78 180.58 135.71 184.83 C 135.07 187.09 133.86 189.13 132.92 191.27 C 137.02 190.89 141.18 187.68 140.76 183.21 C 140.03 178.71 135.56 176.67 131.98 174.73 C 128.59 178.16 124.39 180.68 120.85 183.92 C 118.64 188.33 120.14 193.62 122.34 197.77 C 116.92 197.99 111.73 199.75 106.87 202.07 C 109.59 197.93 112.39 193.64 112.99 188.60 C 110.64 191.04 110.51 194.72 108.44 197.36 C 104.44 204.11 97.30 207.97 90.45 211.25 C 91.86 211.90 93.28 212.52 94.72 213.13 C 101.05 207.89 108.59 203.77 116.91 203.03 C 126.61 202.23 135.78 207.10 143.02 213.14 C 147.21 211.50 151.41 209.87 155.48 207.96 C 150.45 205.16 145.27 202.58 139.83 200.66 C 143.81 198.59 146.14 194.70 148.34 190.96 C 149.32 193.80 151.27 197.50 154.84 197.03 C 158.06 196.28 161.17 190.74 157.22 188.72 C 154.83 187.37 152.75 190.37 152.64 192.53 C 153.80 192.41 154.97 192.30 156.14 192.19 C 155.77 193.36 155.40 194.54 155.04 195.72 C 148.84 195.82 148.08 186.30 153.29 184.21 C 157.62 183.04 162.13 186.55 163.34 190.63 C 165.15 195.49 162.97 200.55 160.85 204.91 C 162.71 203.77 164.69 202.76 166.31 201.27 C 169.69 195.06 168.69 187.81 167.90 181.08 C 178.59 179.88 188.77 174.98 196.19 167.17 C 198.50 162.53 200.45 157.56 201.16 152.39 C 199.15 154.70 197.96 157.60 195.78 159.77 C 190.49 165.41 182.81 168.49 175.15 168.77 C 169.95 168.18 164.86 166.41 160.63 163.28 C 166.29 164.86 172.54 166.64 178.21 164.18 C 186.49 160.70 189.97 147.49 182.25 141.71 C 178.30 139.01 172.69 137.88 168.35 140.38 C 163.65 142.53 161.39 147.66 159.99 152.33 C 163.42 149.95 165.88 145.96 170.09 144.85 C 176.96 143.97 181.41 154.61 176.02 159.00 C 173.51 161.81 169.48 161.12 166.14 160.91 C 160.56 159.46 156.35 153.80 156.93 148.00 C 156.91 142.56 160.99 138.25 165.02 135.10 C 172.79 128.70 182.98 125.23 193.06 125.87 C 197.08 125.53 200.55 127.78 204.09 129.29 C 203.83 127.54 203.54 125.80 203.27 124.05 C 200.04 122.06 196.59 120.43 192.90 119.49 C 195.13 117.91 198.42 116.35 198.05 113.08 C 198.21 109.84 194.44 109.18 192.15 108.11 C 191.14 109.17 188.91 110.11 189.64 111.92 C 189.72 114.07 191.87 114.63 193.53 115.22 C 193.43 114.04 193.32 112.87 193.21 111.70 C 194.56 112.06 195.89 112.46 197.21 112.91 C 196.25 115.66 194.11 117.80 191.08 118.00 C 188.92 117.41 186.27 116.90 185.35 114.55 C 183.89 110.97 186.51 107.32 189.34 105.32 C 192.22 103.22 195.97 103.86 199.31 103.80 C 197.87 97.95 195.78 92.19 192.57 87.07 C 191.11 88.75 189.87 90.86 187.61 91.55 C 178.21 95.41 165.39 91.77 161.28 81.97 C 165.41 83.74 170.97 86.77 174.82 82.84 C 179.07 79.81 180.05 72.63 175.76 69.22 C 174.35 67.64 172.06 68.15 170.20 67.85 C 167.85 70.14 166.16 75.44 170.17 76.90 C 171.62 76.74 172.74 75.60 173.99 74.94 C 174.00 74.22 174.02 72.78 174.04 72.06 C 172.92 72.36 171.81 72.65 170.70 72.94 C 170.79 71.65 170.90 70.36 171.03 69.08 C 176.51 68.56 179.08 76.16 175.67 79.72 C 170.91 83.27 164.36 79.02 162.94 73.97 C 160.84 68.58 162.89 62.62 166.03 58.07 C 165.56 57.82 164.62 57.32 164.15 57.07 M 87.00 197.72 C 87.22 199.17 87.57 200.59 87.77 202.04 C 87.58 205.06 84.89 206.89 82.87 208.77 C 84.50 209.26 86.14 209.78 87.79 210.23 C 88.90 208.40 90.08 206.53 90.34 204.36 C 91.14 201.65 88.87 199.33 87.00 197.72 M 77.96 199.89 C 78.02 201.16 78.11 202.43 78.22 203.70 C 79.68 204.21 81.10 205.16 82.71 205.00 C 84.78 203.84 84.45 200.40 82.10 199.81 C 81.28 200.56 80.57 201.41 79.97 202.36 C 79.30 201.53 78.63 200.71 77.96 199.89 Z" />
<path d=" M 165.39 144.87 C 169.46 139.23 178.82 140.02 182.20 145.92 C 184.94 150.47 183.76 156.48 180.27 160.28 C 177.53 163.63 172.78 163.63 168.83 163.97 C 173.78 163.04 178.74 160.65 180.88 155.81 C 181.68 151.24 179.84 145.49 175.12 143.84 C 171.96 141.86 168.39 143.47 165.39 144.87 Z" /></g>
<g fill="rgb(26,24,27)" stroke="rgb(26,24,27)" stroke-width=".05%" stroke-opacity="50%"><path d=" M 122.95 41.00 C 126.31 41.53 129.65 42.19 132.93 43.09 C 134.87 47.13 134.47 51.98 132.09 55.74 C 131.78 52.55 132.91 48.91 130.88 46.10 C 129.17 43.27 125.66 42.53 122.95 41.00 Z" />
<path d=" M 140.70 48.65 C 143.87 45.57 147.96 48.12 151.05 49.92 C 156.31 56.65 150.53 66.60 143.37 69.16 C 141.54 66.71 139.74 64.24 137.83 61.86 C 140.50 61.96 143.18 62.22 145.84 61.89 C 148.88 60.57 151.90 57.63 151.11 54.00 C 151.54 49.31 145.75 48.68 142.31 48.94 C 141.47 49.96 140.62 50.96 139.76 51.97 C 140.14 52.46 140.90 53.45 141.28 53.94 C 141.93 53.98 143.22 54.07 143.87 54.11 C 143.50 52.98 143.15 51.85 142.83 50.71 C 145.27 51.69 148.08 53.59 146.83 56.64 C 142.55 61.20 135.46 51.77 140.70 48.65 Z" />
<path d=" M 156.55 53.41 C 156.97 53.24 157.82 52.88 158.24 52.71 C 157.29 61.43 154.47 70.13 155.65 78.98 C 155.87 85.19 157.51 91.24 157.83 97.44 C 156.36 94.93 155.62 92.09 154.57 89.40 C 152.66 84.09 149.70 79.26 146.95 74.35 C 149.70 71.97 152.78 69.59 154.02 66.02 C 155.72 62.02 155.80 57.63 156.55 53.41 Z" />
<path d=" M 164.15 57.07 C 164.62 57.32 165.56 57.82 166.03 58.07 C 162.89 62.62 160.84 68.58 162.94 73.97 C 164.36 79.02 170.91 83.27 175.67 79.72 C 179.08 76.16 176.51 68.56 171.03 69.08 C 170.90 70.36 170.79 71.65 170.70 72.94 C 171.81 72.65 172.92 72.36 174.04 72.06 C 174.02 72.78 174.00 74.22 173.99 74.94 C 172.74 75.60 171.62 76.74 170.17 76.90 C 166.16 75.44 167.85 70.14 170.20 67.85 C 172.06 68.15 174.35 67.64 175.76 69.22 C 180.05 72.63 179.07 79.81 174.82 82.84 C 170.97 86.77 165.41 83.74 161.28 81.97 C 165.39 91.77 178.21 95.41 187.61 91.55 C 189.87 90.86 191.11 88.75 192.57 87.07 C 195.78 92.19 197.87 97.95 199.31 103.80 C 195.97 103.86 192.22 103.22 189.34 105.32 C 186.51 107.32 183.89 110.97 185.35 114.55 C 186.27 116.90 188.92 117.41 191.08 118.00 C 194.11 117.80 196.25 115.66 197.21 112.91 C 195.89 112.46 194.56 112.06 193.21 111.70 C 193.32 112.87 193.43 114.04 193.53 115.22 C 191.87 114.63 189.72 114.07 189.64 111.92 C 188.91 110.11 191.14 109.17 192.15 108.11 C 194.44 109.18 198.21 109.84 198.05 113.08 C 198.42 116.35 195.13 117.91 192.90 119.49 C 196.59 120.43 200.04 122.06 203.27 124.05 C 203.54 125.80 203.83 127.54 204.09 129.29 C 200.55 127.78 197.08 125.53 193.06 125.87 C 182.98 125.23 172.79 128.70 165.02 135.10 C 160.99 138.25 156.91 142.56 156.93 148.00 C 156.35 153.80 160.56 159.46 166.14 160.91 C 169.48 161.12 173.51 161.81 176.02 159.00 C 181.41 154.61 176.96 143.97 170.09 144.85 C 165.88 145.96 163.42 149.95 159.99 152.33 C 161.39 147.66 163.65 142.53 168.35 140.38 C 172.69 137.88 178.30 139.01 182.25 141.71 C 189.97 147.49 186.49 160.70 178.21 164.18 C 172.54 166.64 166.29 164.86 160.63 163.28 C 164.86 166.41 169.95 168.18 175.15 168.77 C 182.81 168.49 190.49 165.41 195.78 159.77 C 197.96 157.60 199.15 154.70 201.16 152.39 C 200.45 157.56 198.50 162.53 196.19 167.17 C 188.77 174.98 178.59 179.88 167.90 181.08 C 168.69 187.81 169.69 195.06 166.31 201.27 C 164.69 202.76 162.71 203.77 160.85 204.91 C 162.97 200.55 165.15 195.49 163.34 190.63 C 162.13 186.55 157.62 183.04 153.29 184.21 C 148.08 186.30 148.84 195.82 155.04 195.72 C 155.40 194.54 155.77 193.36 156.14 192.19 C 154.97 192.30 153.80 192.41 152.64 192.53 C 152.75 190.37 154.83 187.37 157.22 188.72 C 161.17 190.74 158.06 196.28 154.84 197.03 C 151.27 197.50 149.32 193.80 148.34 190.96 C 146.14 194.70 143.81 198.59 139.83 200.66 C 145.27 202.58 150.45 205.16 155.48 207.96 C 151.41 209.87 147.21 211.50 143.02 213.14 C 135.78 207.10 126.61 202.23 116.91 203.03 C 108.59 203.77 101.05 207.89 94.72 213.13 C 93.28 212.52 91.86 211.90 90.45 211.25 C 97.30 207.97 104.44 204.11 108.44 197.36 C 110.51 194.72 110.64 191.04 112.99 188.60 C 112.39 193.64 109.59 197.93 106.87 202.07 C 111.73 199.75 116.92 197.99 122.34 197.77 C 120.14 193.62 118.64 188.33 120.85 183.92 C 124.39 180.68 128.59 178.16 131.98 174.73 C 135.56 176.67 140.03 178.71 140.76 183.21 C 141.18 187.68 137.02 190.89 132.92 191.27 C 133.86 189.13 135.07 187.09 135.71 184.83 C 135.78 180.58 129.88 177.85 126.83 180.84 C 123.89 183.55 122.85 188.31 125.27 191.70 C 128.82 197.21 137.13 196.42 141.71 192.70 C 148.80 184.20 150.49 171.20 144.12 161.79 C 145.35 160.14 146.54 158.47 147.76 156.82 C 150.22 165.33 152.01 174.14 150.98 183.04 C 153.42 181.76 156.04 180.07 158.93 180.87 C 162.15 181.28 164.55 183.62 167.08 185.42 C 165.09 173.49 159.10 161.87 148.71 155.18 C 152.28 149.88 154.74 143.95 156.98 138.00 C 159.11 134.53 162.60 132.13 165.99 130.00 C 172.11 126.05 179.04 122.92 186.41 122.61 C 185.60 120.36 182.81 121.23 180.97 120.99 C 172.96 121.10 165.78 124.76 158.82 128.30 C 159.41 126.78 159.36 124.81 160.62 123.66 C 168.13 119.10 177.15 116.49 185.93 118.08 C 183.98 116.17 181.71 113.95 181.83 110.99 C 181.43 106.60 184.23 102.86 187.30 100.08 C 176.57 97.44 164.84 93.00 159.42 82.62 C 156.08 74.16 158.29 63.94 164.15 57.07 M 165.39 144.87 C 168.39 143.47 171.96 141.86 175.12 143.84 C 179.84 145.49 181.68 151.24 180.88 155.81 C 178.74 160.65 173.78 163.04 168.83 163.97 C 172.78 163.63 177.53 163.63 180.27 160.28 C 183.76 156.48 184.94 150.47 182.20 145.92 C 178.82 140.02 169.46 139.23 165.39 144.87 Z" />
<path d=" M 87.00 197.72 C 88.87 199.33 91.14 201.65 90.34 204.36 C 90.08 206.53 88.90 208.40 87.79 210.23 C 86.14 209.78 84.50 209.26 82.87 208.77 C 84.89 206.89 87.58 205.06 87.77 202.04 C 87.57 200.59 87.22 199.17 87.00 197.72 Z" />
<path d=" M 77.96 199.89 C 78.63 200.71 79.30 201.53 79.97 202.36 C 80.57 201.41 81.28 200.56 82.10 199.81 C 84.45 200.40 84.78 203.84 82.71 205.00 C 81.10 205.16 79.68 204.21 78.22 203.70 C 78.11 202.43 78.02 201.16 77.96 199.89 Z" /></g>


</g></svg>